<?xml version="1.0" encoding="UTF-8" standalone="no"?><!DOCTYPE svg PUBLIC "-//W3C//DTD SVG 1.1//EN" "http://www.w3.org/Graphics/SVG/1.1/DTD/svg11.dtd"><svg width="100%" height="100%" viewBox="0 0 1920 1080" version="1.1" xmlns="http://www.w3.org/2000/svg" xmlns:xlink="http://www.w3.org/1999/xlink" xml:space="preserve" xmlns:serif="http://www.serif.com/" style="fill-rule:evenodd;clip-rule:evenodd;stroke-linecap:round;stroke-linejoin:round;stroke-miterlimit:1.5;"><rect x="1380" y="760" width="80" height="80" style="fill:#ebebeb;"/><rect x="1020" y="760" width="320" height="160" style="fill:#ebebeb;"/><path d="M1172,876c-4.4,0 -8.167,-1.567 -11.3,-4.7c-3.133,-3.133 -4.7,-6.9 -4.7,-11.3c-0,-4.4 1.567,-8.167 4.7,-11.3c3.133,-3.133 6.9,-4.7 11.3,-4.7c1.533,0 2.95,0.183 4.25,0.55c1.3,0.367 2.55,0.917 3.75,1.65l-0,-42.2l24,0l-0,16l-16,0l-0,40c-0,4.4 -1.567,8.167 -4.7,11.3c-3.133,3.133 -6.9,4.7 -11.3,4.7Z" style="fill-rule:nonzero;"/><rect x="1180" y="480" width="320" height="240" style="fill:#ebebeb;"/><path d="M1340,594l-12,-12l0,-22l24,0l0,22l-12,12Zm18,18l-12,-12l12,-12l22,0l0,24l-22,0Zm-58,0l0,-24l22,0l12,12l-12,12l-22,0Zm28,28l0,-22l12,-12l12,12l0,22l-24,0Zm12,-57.4l4,-4l0,-10.6l-8,0l0,10.6l4,4Zm-32,21.4l10.6,0l4,-4l-4,-4l-10.6,0l0,8Zm28,28l8,0l0,-10.6l-4,-4l-4,4l0,10.6Zm25.4,-28l10.6,0l0,-8l-10.6,0l-4,4l4,4Z" style="fill-rule:nonzero;"/><rect x="820" y="760" width="160" height="240" style="fill:#ebebeb;"/><path d="M896,848l0,-12l8,0l0,12l-8,0Zm0,76l0,-12l8,0l0,12l-8,0Zm36,-40l0,-8l12,0l0,8l-12,0Zm-76,0l0,-8l12,0l0,8l-12,0Zm70.8,-25.2l-5.6,-5.6l7,-7.2l5.8,5.8l-7.2,7Zm-55,55.2l-5.8,-5.8l7.2,-7l5.6,5.6l-7,7.2Zm56.4,0l-7,-7.2l5.6,-5.6l7.2,7l-5.8,5.8Zm-55,-55.2l-7.2,-7l5.8,-5.8l7,7.2l-5.6,5.6Zm26.8,45.2c-6.667,0 -12.333,-2.333 -17,-7c-4.667,-4.667 -7,-10.333 -7,-17c0,-6.667 2.333,-12.333 7,-17c4.667,-4.667 10.333,-7 17,-7c6.667,0 12.333,2.333 17,7c4.667,4.667 7,10.333 7,17c0,6.667 -2.333,12.333 -7,17c-4.667,4.667 -10.333,7 -17,7Zm0,-8c4.467,0 8.25,-1.55 11.35,-4.65c3.1,-3.1 4.65,-6.883 4.65,-11.35c0,-4.467 -1.55,-8.25 -4.65,-11.35c-3.1,-3.1 -6.883,-4.65 -11.35,-4.65c-4.467,0 -8.25,1.55 -11.35,4.65c-3.1,3.1 -4.65,6.883 -4.65,11.35c0,4.467 1.55,8.25 4.65,11.35c3.1,3.1 6.883,4.65 11.35,4.65Z" style="fill-rule:nonzero;"/><rect x="1380" y="360" width="80" height="80" style="fill:#ebebeb;"/><rect x="820" y="360" width="320" height="360" style="fill:#ebebeb;"/><rect x="1180" y="240" width="160" height="200" style="fill:#ebebeb;"/><path d="M1260,380c-5.467,-0 -10.633,-1.05 -15.5,-3.15c-4.867,-2.1 -9.117,-4.967 -12.75,-8.6c-3.633,-3.633 -6.5,-7.883 -8.6,-12.75c-2.1,-4.867 -3.15,-10.033 -3.15,-15.5c-0,-5.533 1.083,-10.733 3.25,-15.6c2.167,-4.867 5.1,-9.1 8.8,-12.7c3.7,-3.6 8.017,-6.45 12.95,-8.55c4.933,-2.1 10.2,-3.15 15.8,-3.15c5.333,-0 10.367,0.917 15.1,2.75c4.733,1.833 8.883,4.367 12.45,7.6c3.567,3.233 6.4,7.067 8.5,11.5c2.1,4.433 3.15,9.217 3.15,14.35c-0,7.667 -2.333,13.55 -7,17.65c-4.667,4.1 -10.333,6.15 -17,6.15l-7.4,-0c-0.6,-0 -1.017,0.167 -1.25,0.5c-0.233,0.333 -0.35,0.7 -0.35,1.1c-0,0.8 0.5,1.95 1.5,3.45c1,1.5 1.5,3.217 1.5,5.15c-0,3.333 -0.917,5.8 -2.75,7.4c-1.833,1.6 -4.25,2.4 -7.25,2.4Zm-22,-36c1.733,-0 3.167,-0.567 4.3,-1.7c1.133,-1.133 1.7,-2.567 1.7,-4.3c-0,-1.733 -0.567,-3.167 -1.7,-4.3c-1.133,-1.133 -2.567,-1.7 -4.3,-1.7c-1.733,-0 -3.167,0.567 -4.3,1.7c-1.133,1.133 -1.7,2.567 -1.7,4.3c-0,1.733 0.567,3.167 1.7,4.3c1.133,1.133 2.567,1.7 4.3,1.7Zm12,-16c1.733,-0 3.167,-0.567 4.3,-1.7c1.133,-1.133 1.7,-2.567 1.7,-4.3c-0,-1.733 -0.567,-3.167 -1.7,-4.3c-1.133,-1.133 -2.567,-1.7 -4.3,-1.7c-1.733,-0 -3.167,0.567 -4.3,1.7c-1.133,1.133 -1.7,2.567 -1.7,4.3c-0,1.733 0.567,3.167 1.7,4.3c1.133,1.133 2.567,1.7 4.3,1.7Zm20,-0c1.733,-0 3.167,-0.567 4.3,-1.7c1.133,-1.133 1.7,-2.567 1.7,-4.3c-0,-1.733 -0.567,-3.167 -1.7,-4.3c-1.133,-1.133 -2.567,-1.7 -4.3,-1.7c-1.733,-0 -3.167,0.567 -4.3,1.7c-1.133,1.133 -1.7,2.567 -1.7,4.3c-0,1.733 0.567,3.167 1.7,4.3c1.133,1.133 2.567,1.7 4.3,1.7Zm12,16c1.733,-0 3.167,-0.567 4.3,-1.7c1.133,-1.133 1.7,-2.567 1.7,-4.3c-0,-1.733 -0.567,-3.167 -1.7,-4.3c-1.133,-1.133 -2.567,-1.7 -4.3,-1.7c-1.733,-0 -3.167,0.567 -4.3,1.7c-1.133,1.133 -1.7,2.567 -1.7,4.3c-0,1.733 0.567,3.167 1.7,4.3c1.133,1.133 2.567,1.7 4.3,1.7Zm-22,28c0.6,-0 1.083,-0.167 1.45,-0.5c0.367,-0.333 0.55,-0.767 0.55,-1.3c-0,-0.933 -0.5,-2.033 -1.5,-3.3c-1,-1.267 -1.5,-3.167 -1.5,-5.7c-0,-2.8 0.967,-5.033 2.9,-6.7c1.933,-1.667 4.3,-2.5 7.1,-2.5l7,-0c4.4,-0 8.167,-1.283 11.3,-3.85c3.133,-2.567 4.7,-6.55 4.7,-11.95c-0,-8.067 -3.083,-14.783 -9.25,-20.15c-6.167,-5.367 -13.483,-8.05 -21.95,-8.05c-9.067,-0 -16.8,3.1 -23.2,9.3c-6.4,6.2 -9.6,13.767 -9.6,22.7c-0,8.867 3.117,16.417 9.35,22.65c6.233,6.233 13.783,9.35 22.65,9.35Z" style="fill-rule:nonzero;"/><rect x="620" y="560" width="160" height="360" style="fill:#ebebeb;"/><path d="M688,776l-16,0c-2.2,0 -4.083,-0.783 -5.65,-2.35c-1.567,-1.567 -2.35,-3.45 -2.35,-5.65l0,-28c0,-5 0.95,-9.683 2.85,-14.05c1.9,-4.367 4.467,-8.167 7.7,-11.4c3.233,-3.233 7.033,-5.8 11.4,-7.7c4.367,-1.9 9.05,-2.85 14.05,-2.85c5,0 9.683,0.95 14.05,2.85c4.367,1.9 8.167,4.467 11.4,7.7c3.233,3.233 5.8,7.033 7.7,11.4c1.9,4.367 2.85,9.05 2.85,14.05l0,28c0,2.2 -0.783,4.083 -2.35,5.65c-1.567,1.567 -3.45,2.35 -5.65,2.35l-16,0l0,-32l16,0l0,-4c0,-7.8 -2.717,-14.417 -8.15,-19.85c-5.433,-5.433 -12.05,-8.15 -19.85,-8.15c-7.8,0 -14.417,2.717 -19.85,8.15c-5.433,5.433 -8.15,12.05 -8.15,19.85l0,4l16,0l0,32Zm-8,-24l-8,0l0,16l8,0l0,-16Zm40,0l0,16l8,0l0,-16l-8,0Zm-40,0l-8,0l8,0Zm40,0l8,0l-8,0Z" style="fill-rule:nonzero;"/><rect x="540" y="840" width="40" height="40" style="fill:#ebebeb;"/><rect x="980" y="80" width="160" height="240" style="fill:#ebebeb;"/><path d="M1029.6,236c-1.267,-0.267 -2.45,-0.95 -3.55,-2.05c-1.1,-1.1 -1.783,-2.283 -2.05,-3.55l66.4,-66.4c1.4,0.333 2.6,1.017 3.6,2.05c1,1.033 1.7,2.217 2.1,3.55l-66.5,66.4Zm-5.6,-25.2l0,-11.2l35.6,-35.6l11.2,0l-46.8,46.8Zm0,-30.8l0,-8c0,-2.2 0.783,-4.083 2.35,-5.65c1.567,-1.567 3.45,-2.35 5.65,-2.35l8,0l-16,16Zm56,56l16,-16l0,8c0,2.2 -0.783,4.083 -2.35,5.65c-1.567,1.567 -3.45,2.35 -5.65,2.35l-8,0Zm-30.8,0l46.8,-46.8l0,11.2l-35.6,35.6l-11.2,0Z" style="fill-rule:nonzero;"/><rect x="420" y="560" width="160" height="240" style="fill:#ebebeb;"/><path d="M496,684l-0,-8l8,-0l-0,8l-8,-0Zm-8,8l-0,-8l8,-0l-0,8l-8,-0Zm16,-0l-0,-8l8,-0l-0,8l-8,-0Zm8,-8l-0,-8l8,-0l-0,8l-8,-0Zm-32,-0l-0,-8l8,-0l-0,8l-8,-0Zm-8,32c-2.2,-0 -4.083,-0.783 -5.65,-2.35c-1.567,-1.567 -2.35,-3.45 -2.35,-5.65l-0,-56c-0,-2.2 0.783,-4.083 2.35,-5.65c1.567,-1.567 3.45,-2.35 5.65,-2.35l56,-0c2.2,-0 4.083,0.783 5.65,2.35c1.567,1.567 2.35,3.45 2.35,5.65l-0,56c-0,2.2 -0.783,4.083 -2.35,5.65c-1.567,1.567 -3.45,2.35 -5.65,2.35l-56,-0Zm8,-8l8,-0l-0,-8l-8,-0l-0,8Zm16,-0l8,-0l-0,-8l-8,-0l-0,8Zm32,-0l-0,-8l-0,8Zm-56,-8l8,-0l-0,-8l8,-0l-0,8l8,-0l-0,-8l8,-0l-0,8l8,-0l-0,-8l8,-0l-0,8l8,-0l-0,-8l-8,-0l-0,-8l8,-0l-0,-32l-56,-0l-0,32l8,-0l-0,8l-8,-0l-0,8Zm-0,8l-0,-56l-0,56Zm56,-24l-0,8l-0,-8Zm-16,16l-0,8l8,-0l-0,-8l-8,-0Z" style="fill-rule:nonzero;"/><rect x="1180" y="160" width="40" height="40" style="fill:#ebebeb;"/><rect x="540" y="360" width="240" height="160" style="fill:#ebebeb;"/><path d="M632,480l-0,-8l24,0l-0,-16l-8,0c-5.533,0 -10.25,-1.95 -14.15,-5.85c-3.9,-3.9 -5.85,-8.617 -5.85,-14.15c-0,-4 1.1,-7.683 3.3,-11.05c2.2,-3.367 5.167,-5.817 8.9,-7.35c0.6,-5 2.783,-9.183 6.55,-12.55c3.767,-3.367 8.183,-5.05 13.25,-5.05c5.067,0 9.483,1.683 13.25,5.05c3.767,3.367 5.95,7.55 6.55,12.55c3.733,1.533 6.7,3.983 8.9,7.35c2.2,3.367 3.3,7.05 3.3,11.05c-0,5.533 -1.95,10.25 -5.85,14.15c-3.9,3.9 -8.617,5.85 -14.15,5.85l-8,0l-0,16l24,0l-0,8l-56,0Zm16,-32l24,0c3.333,0 6.167,-1.167 8.5,-3.5c2.333,-2.333 3.5,-5.167 3.5,-8.5c-0,-2.4 -0.683,-4.6 -2.05,-6.6c-1.367,-2 -3.15,-3.467 -5.35,-4.4l-4.2,-1.8l-0.6,-4.6c-0.4,-3 -1.717,-5.517 -3.95,-7.55c-2.233,-2.033 -4.85,-3.05 -7.85,-3.05c-3,0 -5.617,1.017 -7.85,3.05c-2.233,2.033 -3.55,4.55 -3.95,7.55l-0.6,4.6l-4.2,1.8c-2.2,0.933 -3.983,2.4 -5.35,4.4c-1.367,2 -2.05,4.2 -2.05,6.6c-0,3.333 1.167,6.167 3.5,8.5c2.333,2.333 5.167,3.5 8.5,3.5Z" style="fill-rule:nonzero;"/><rect x="700" y="160" width="240" height="160" style="fill:#ebebeb;"/><path d="M776,264l24,-32l18,24l30,0l-20,-26.6l-10,13.2l-5,-6.6l15,-20l36,48l-88,0Zm16,-8l16,0l-8,-10.7l-8,10.7Zm-0,0l16,0l-16,0Z" style="fill-rule:nonzero;"/><rect x="580" y="240" width="80" height="80" style="fill:#ebebeb;stroke:#000;stroke-width:0.1px;"/></svg>