<?xml version="1.0" encoding="UTF-8" standalone="no"?><!DOCTYPE svg PUBLIC "-//W3C//DTD SVG 1.1//EN" "http://www.w3.org/Graphics/SVG/1.1/DTD/svg11.dtd"><svg width="100%" height="100%" viewBox="0 0 1920 1080" version="1.1" xmlns="http://www.w3.org/2000/svg" xmlns:xlink="http://www.w3.org/1999/xlink" xml:space="preserve" xmlns:serif="http://www.serif.com/" style="fill-rule:evenodd;clip-rule:evenodd;stroke-linejoin:round;stroke-miterlimit:2;"><rect x="680" y="40" width="560" height="1000" style="fill:#989898;"/><g transform="matrix(28,0,0,28,972,110.22)"></g><text x="720px" y="110.22px" style="font-family:'JetBrainsMono-Bold', 'JetBrains Mono', monospace;font-weight:700;font-size:28px;">EXECUTABLE FILE</text><rect x="720" y="160" width="480" height="260" style="fill:#ebebeb;"/><rect x="720" y="460" width="480" height="540" style="fill:#ebebeb;"/><rect id="Artboard1" x="864" y="637.429" width="192" height="185.143" style="fill:none;"/><path d="M888,730l-0,-7.714l8,-0c1.061,-0 2.078,-0.407 2.828,-1.13c0.751,-0.723 1.172,-1.704 1.172,-2.727l-0,-34.715c-0,-3.069 1.264,-6.012 3.515,-8.182c2.25,-2.17 5.302,-3.389 8.485,-3.389l12,-0l-0,7.714l-12,0c-1.061,0 -2.078,0.407 -2.828,1.13c-0.751,0.723 -1.172,1.704 -1.172,2.727l-0,34.715c0,3.069 -1.264,6.012 -3.515,8.182c-2.25,2.17 -5.302,3.389 -8.485,3.389l-8,-0Z" style="fill:#f44a4a;"/><path d="M888,737.714l-0,-7.714l8,-0c3.183,-0 6.235,1.219 8.485,3.389c2.251,2.17 3.515,5.113 3.515,8.182l-0,34.715c-0,1.023 0.421,2.004 1.172,2.727c0.75,0.723 1.767,1.13 2.828,1.13l12,-0l-0,7.714l-12,0c-3.183,0 -6.235,-1.219 -8.485,-3.389c-2.251,-2.17 -3.515,-5.113 -3.515,-8.182l-0,-34.715c0,-1.023 -0.421,-2.004 -1.172,-2.727c-0.75,-0.723 -1.767,-1.13 -2.828,-1.13l-8,0Z" style="fill:#f44a4a;"/><path d="M1032,722.286l-0,7.714l-8,-0c-3.183,-0 -6.235,-1.219 -8.485,-3.389c-2.251,-2.17 -3.515,-5.113 -3.515,-8.182l-0,-34.715c0,-1.023 -0.421,-2.004 -1.172,-2.727c-0.75,-0.723 -1.767,-1.13 -2.828,-1.13l-12,0l-0,-7.714l12,-0c3.183,-0 6.235,1.219 8.485,3.389c2.251,2.17 3.515,5.113 3.515,8.182l-0,34.715c-0,1.023 0.421,2.004 1.172,2.727c0.75,0.723 1.767,1.13 2.828,1.13l8,-0Z" style="fill:#f44a4a;"/><path d="M1032,730l-0,7.714l-8,0c-1.061,0 -2.078,0.407 -2.828,1.13c-0.751,0.723 -1.172,1.704 -1.172,2.727l-0,34.715c0,3.069 -1.264,6.012 -3.515,8.182c-2.25,2.17 -5.302,3.389 -8.485,3.389l-12,0l-0,-7.714l12,-0c1.061,-0 2.078,-0.407 2.828,-1.13c0.751,-0.723 1.172,-1.704 1.172,-2.727l-0,-34.715c-0,-3.069 1.264,-6.012 3.515,-8.182c2.25,-2.17 5.302,-3.389 8.485,-3.389l8,-0Z" style="fill:#f44a4a;"/><path d="M971.96,695.286c0.022,-0 0.04,0.017 0.04,0.038c-0,0.562 -0,7.076 -0,7.637c-0,0.022 -0.018,0.039 -0.04,0.039c-1.528,-0 -46.392,-0 -47.92,-0c-0.022,-0 -0.04,-0.017 -0.04,-0.039c-0,-0.561 -0,-7.075 -0,-7.637c0,-0.021 0.018,-0.038 0.04,-0.038c1.528,-0 46.392,-0 47.92,-0Z" style="fill:#f44a4a;"/><path d="M995.96,710.714c0.011,0 0.021,0.004 0.028,0.012c0.008,0.007 0.012,0.017 0.012,0.027c-0,0.561 -0,7.075 -0,7.637c-0,0.01 -0.004,0.02 -0.012,0.027c-0.007,0.008 -0.017,0.012 -0.028,0.012c-1.889,-0 -70.031,-0 -71.92,-0c-0.011,-0 -0.021,-0.004 -0.028,-0.012c-0.008,-0.007 -0.012,-0.017 -0.012,-0.027c-0,-0.562 -0,-7.076 -0,-7.637c0,-0.01 0.004,-0.02 0.012,-0.027c0.007,-0.008 0.017,-0.012 0.028,-0.012c1.889,0 70.031,0 71.92,0Z" style="fill:#f44a4a;"/><path d="M947.96,726.143c0.011,-0 0.021,0.004 0.028,0.011c0.008,0.007 0.012,0.017 0.012,0.027c-0,0.562 -0,7.076 -0,7.638c-0,0.01 -0.004,0.02 -0.012,0.027c-0.007,0.007 -0.017,0.011 -0.028,0.011c-1.061,0 -22.859,0 -23.92,0c-0.011,0 -0.021,-0.004 -0.028,-0.011c-0.008,-0.007 -0.012,-0.017 -0.012,-0.027c-0,-0.562 -0,-7.076 -0,-7.638c0,-0.01 0.004,-0.02 0.012,-0.027c0.007,-0.007 0.017,-0.011 0.028,-0.011c1.061,-0 22.859,-0 23.92,-0Z" style="fill:#f44a4a;"/><path d="M967.96,741.571c0.011,0 0.021,0.004 0.028,0.012c0.008,0.007 0.012,0.017 0.012,0.027c-0,0.562 -0,7.076 -0,7.637c-0,0.01 -0.004,0.02 -0.012,0.027c-0.007,0.008 -0.017,0.012 -0.028,0.012c-1.461,-0 -42.459,-0 -43.92,-0c-0.011,-0 -0.021,-0.004 -0.028,-0.012c-0.008,-0.007 -0.012,-0.017 -0.012,-0.027c-0,-0.561 -0,-7.075 -0,-7.637c0,-0.01 0.004,-0.02 0.012,-0.027c0.007,-0.008 0.017,-0.012 0.028,-0.012c1.461,0 42.459,0 43.92,0Z" style="fill:#f44a4a;"/><path d="M981.96,757c0.011,-0 0.021,0.004 0.028,0.011c0.008,0.008 0.012,0.017 0.012,0.028c-0,0.561 -0,7.075 -0,7.637c-0,0.01 -0.004,0.02 -0.012,0.027c-0.007,0.007 -0.017,0.011 -0.028,0.011c-1.689,0 -56.231,0 -57.92,0c-0.011,0 -0.021,-0.004 -0.028,-0.011c-0.008,-0.007 -0.012,-0.017 -0.012,-0.027c-0,-0.562 -0,-7.076 -0,-7.637c0,-0.011 0.004,-0.02 0.012,-0.028c0.007,-0.007 0.017,-0.011 0.028,-0.011c1.689,-0 56.231,-0 57.92,-0Z" style="fill:#f44a4a;"/></svg>