<?xml version="1.0" encoding="UTF-8" standalone="no"?>
<!DOCTYPE svg PUBLIC "-//W3C//DTD SVG 1.1//EN" "http://www.w3.org/Graphics/SVG/1.1/DTD/svg11.dtd">
<svg width="100%" height="100%" viewBox="0 0 300 90" version="1.1" xmlns="http://www.w3.org/2000/svg" xmlns:xlink="http://www.w3.org/1999/xlink" xml:space="preserve" xmlns:serif="http://www.serif.com/" style="fill-rule:evenodd;clip-rule:evenodd;stroke-linejoin:round;stroke-miterlimit:2;">
    <g id="Logo1" serif:id="Logo">
        <g transform="matrix(0.617827,0,0,0.617827,-448.435,-287.627)">
            <g>
                <g id="path819-1-94-5-3-1-9-6-4-90-0-8-9-5-8-6-1-6-2" transform="matrix(0.264583,-2.98094e-10,2.98094e-10,0.264583,-818.651,-1219.49)">
                    <g id="g1911-8-3-9-3-2-8">
                        <g id="g1121-3-8-8-2-8-7-1-2-8-3-9-6-0-1">
                            <path id="path819-1-94-5-3-1-9-6-4-90-0-8-9-5-8-6-1-6-21" serif:id="path819-1-94-5-3-1-9-6-4-90-0-8-9-5-8-6-1-6-2" d="M6366.7,6633.61C6366.66,6633.61 6366.61,6633.61 6366.57,6633.61C6331.9,6635.12 6306.45,6675.47 6306.04,6686.23C6305.27,6706.43 6228.03,6622.1 6225.7,6635.19C6223.38,6648.27 6234.31,6658.85 6216.82,6679.05C6196.01,6703.1 6227.06,6790.36 6188.96,6796.65C6181.87,6801.18 6197.55,6807.43 6219.16,6815.57C6248.81,6826.73 6279.82,6827.34 6304.41,6819.27C6347.72,6805.06 6344.37,6794.85 6363.78,6765.11C6369.89,6755.74 6376.95,6748.59 6384.04,6742.71C6404.24,6751.52 6424.13,6757.18 6436.53,6755.77C6443.19,6740.32 6436.37,6722.41 6425.02,6705.47C6434.33,6676.57 6420.21,6647.63 6388.94,6637.4C6380.78,6634.73 6373.45,6633.47 6366.7,6633.6L6366.7,6633.61ZM6390.16,6676.05C6393.64,6675.98 6396.95,6677.43 6399.22,6680.01C6399.22,6680.01 6399.22,6680.01 6399.23,6680.01C6403.5,6684.88 6402.94,6692.47 6397.99,6696.83C6397.99,6696.83 6397.98,6696.83 6397.98,6696.83C6393.03,6701.19 6385.43,6700.77 6381.15,6695.9C6381.15,6695.9 6381.15,6695.9 6381.15,6695.9C6376.87,6691.04 6377.43,6683.44 6382.39,6679.09C6382.39,6679.09 6382.39,6679.09 6382.39,6679.08C6384.55,6677.19 6387.31,6676.11 6390.16,6676.05ZM6196.34,6804.68C6196.7,6804.9 6197.07,6805.08 6197.43,6805.29C6197.8,6805.15 6198.18,6805.01 6198.55,6804.87C6197.81,6804.8 6197.08,6804.76 6196.34,6804.69L6196.34,6804.68Z" style="fill:rgb(120,120,120);fill-rule:nonzero;"/>
                        </g>
                    </g>
                </g>
              <g id="path3031-2-2-9" transform="matrix(0.264583,-1.33759e-09,1.33759e-09,0.264583,-818.651,-1219.49)">
                    <g id="g1051-1-2-0-8-6-0-8-1-5-6-9-6-8-9">
                        <g id="g3029-3-9-3">
                            <path id="path3031-2-2-91" serif:id="path3031-2-2-9" d="M6211.12,6453.87C6194.19,6453.77 6176.83,6460.53 6161.91,6475.02C6142.32,6494.05 6136.23,6511.18 6139.66,6532.55L6140.61,6538.41L6134.75,6537.46C6091.7,6530.48 6038.41,6534.01 5977.79,6558.53C5995.61,6566.17 6028.32,6578.92 6064.62,6596.35L6076.13,6601.88L6063.62,6604.41C6015.69,6614.13 5958.81,6642.19 5906.86,6703.44C5930.1,6701.63 5977.6,6696.04 6027.13,6696.12C6054.67,6696.16 6081.8,6698.07 6103.91,6703.8C6126.02,6709.53 6146.11,6722.65 6148.94,6732.26C6151.77,6741.87 6150.17,6746.93 6147.38,6754.45C6144.59,6761.97 6136.01,6773.39 6124.15,6780.93C6112.28,6788.47 6097.23,6795.06 6081.59,6800.66C6050.31,6811.87 6017.02,6819.02 6002.32,6820.39C5999.19,6820.68 5997.95,6821.8 5996.74,6823.99C5995.54,6826.18 5994.88,6829.61 5994.78,6833.2C5994.65,6838 5995.39,6840.5 5996.75,6842.4C5998.1,6844.3 6000.22,6845.06 6002.4,6845.21C6094.76,6851.46 6163.82,6828.23 6213.97,6808.33C6271.66,6781.88 6308.12,6729.64 6316.03,6682.62C6320.99,6653.15 6319.93,6638.71 6315.15,6626.41C6310.36,6614.11 6301.19,6603.19 6289.57,6582.34C6282.09,6568.93 6277.92,6555.78 6275.34,6543.54L6274.79,6540.96L6276.85,6539.31C6298.22,6522.17 6315.63,6503.46 6321.95,6489.84C6308.98,6476.05 6286.57,6473.14 6261.51,6475.82L6259.45,6476.03L6258,6474.56C6244.64,6460.95 6228.06,6453.97 6211.12,6453.87L6211.12,6453.87ZM6218.63,6485.71C6225.98,6485.6 6232.47,6490.69 6234.23,6497.97C6236.3,6506.53 6231.16,6515.12 6222.76,6517.15C6214.35,6519.19 6205.85,6513.89 6203.78,6505.33C6201.71,6496.76 6206.85,6488.17 6215.25,6486.14C6216.36,6485.87 6217.49,6485.73 6218.63,6485.71Z" style="fill:rgb(236,236,236);fill-rule:nonzero;"/>
                        </g>
                    </g>
                </g>
              <g id="path3008-7-0-9" transform="matrix(0.264583,-8.24394e-11,8.24394e-11,0.264583,-818.651,-1219.49)">
                    <g id="g1051-1-1-8-8-4-9-4-0-4-6-4-7-6-6-0">
                        <g id="g1129-5-9-8-0-7-2-7-3-8-61-1-6-8">
                            <g id="g1344-1-3-9-3-8-8-8-3-5-4-8">
                                <g id="g1121-7-7-2-3-3-7-4-5-8-2-5-9-5">
                                    <g id="g3006-4-5-0">
                                        <path id="path3008-7-0-91" serif:id="path3008-7-0-9" d="M6323.8,6523.01C6318.38,6522.9 6312.7,6523.46 6306.85,6524.81C6277.77,6531.48 6247.32,6592.27 6246.93,6592.36C6238.36,6607.94 6217.89,6579.81 6210.19,6586.08C6197.71,6596.24 6196.62,6632.79 6193.44,6640.54C6179.67,6674.02 6210.05,6648.95 6199.48,6688.45C6195.59,6703.02 6201.7,6709.87 6196.63,6740C6190.34,6777.35 6186.98,6811.27 6259.4,6790.15C6287.38,6781.98 6311.24,6766.93 6327.03,6748.68C6344.07,6728.99 6349.76,6717.85 6351.75,6706.63C6353.75,6695.4 6351.88,6683.1 6352.67,6662.23C6353.19,6648.78 6356.05,6637.01 6359.69,6626.66L6360.57,6624.19L6363.18,6623.84C6386.51,6620.82 6407.59,6614.86 6418.49,6607.83C6414.98,6592.09 6400.11,6579.88 6380.42,6570.6L6378.55,6569.71L6378.07,6567.69C6371.83,6540.87 6350.89,6523.57 6323.8,6523.01ZM6337.35,6556.14C6338.75,6556.14 6340.13,6556.35 6341.46,6556.77C6348.6,6559.06 6352.56,6566.92 6350.24,6574.2C6350.24,6574.2 6350.24,6574.2 6350.24,6574.2C6347.91,6581.48 6340.12,6585.59 6332.98,6583.31C6325.83,6581.03 6321.87,6573.16 6324.19,6565.88C6326.04,6560.1 6331.39,6556.14 6337.35,6556.14Z" style="fill:rgb(178,178,178);fill-rule:nonzero;"/>
                                    </g>
                                </g>
                            </g>
                        </g>
                    </g>
                </g>
            </g>
          <g id="text1778-3-6-3-9-3-6-4-0-9-5-4-6" transform="matrix(1.70884,0,0,1.80391,507.856,-472.052)">
                <path id="path1940-83-0-6-3-1-1-8-3-1-6-8-3" d="M247.747,573.341C248.399,573.527 249.237,573.667 250.261,573.76C251.285,573.807 252.263,573.83 253.194,573.83C255.056,573.83 256.592,573.458 257.802,572.713C259.059,571.922 259.688,570.711 259.688,569.082C259.688,567.546 259.176,566.452 258.151,565.8C257.127,565.148 255.568,564.823 253.473,564.823L247.747,564.823L247.747,573.341ZM247.747,556.303L252.845,556.303C254.846,556.303 256.289,555.931 257.174,555.186C258.105,554.441 258.57,553.347 258.57,551.904C258.57,550.648 258.035,549.647 256.964,548.902C255.94,548.157 254.381,547.785 252.286,547.785C251.588,547.785 250.773,547.808 249.842,547.855C248.958,547.901 248.259,547.971 247.747,548.064L247.747,556.303ZM252.286,583.187C251.495,583.187 250.564,583.164 249.493,583.117C248.422,583.07 247.305,582.977 246.141,582.838C245.024,582.698 243.907,582.512 242.79,582.279C241.672,582.093 240.648,581.814 239.717,581.441C237.157,580.464 235.877,578.764 235.877,576.344L235.877,543.735C235.877,542.757 236.133,542.012 236.645,541.5C237.203,540.941 237.948,540.499 238.879,540.173C240.462,539.615 242.44,539.219 244.815,538.986C247.189,538.707 249.633,538.567 252.146,538.567C258.105,538.567 262.69,539.568 265.902,541.57C269.114,543.572 270.72,546.667 270.72,550.857C270.72,552.952 270.115,554.767 268.905,556.303C267.695,557.793 266.065,558.887 264.017,559.585C266.345,560.237 268.276,561.424 269.813,563.146C271.395,564.869 272.187,567.033 272.187,569.64C272.187,574.249 270.464,577.67 267.02,579.905C263.621,582.093 258.71,583.187 252.286,583.187L252.286,583.187Z" style="fill:rgb(236,236,236);fill-rule:nonzero;"/>
            <g id="path1942-3-4-06-1-4-5-1-0-0-9-7-8" transform="matrix(1,0,0,1,4.11532,0)">
                    <path d="M273.487,546.248C273.487,544.247 274.069,542.664 275.233,541.5C276.397,540.336 277.979,539.755 279.981,539.755L303.024,539.755C303.35,540.267 303.629,540.942 303.862,541.779C304.141,542.617 304.281,543.502 304.281,544.433C304.281,546.202 303.885,547.459 303.094,548.204C302.349,548.948 301.348,549.321 300.091,549.321L285.358,549.321L285.358,555.815L301.069,555.815C301.395,556.327 301.674,557.002 301.907,557.84C302.186,558.631 302.326,559.492 302.326,560.423C302.326,562.192 301.953,563.449 301.209,564.194C300.464,564.939 299.463,565.311 298.206,565.311L285.358,565.311L285.358,572.643L303.303,572.643C303.629,573.155 303.908,573.83 304.141,574.668C304.421,575.506 304.56,576.39 304.56,577.321C304.56,579.09 304.165,580.371 303.373,581.162C302.628,581.907 301.627,582.279 300.371,582.279L279.981,582.279C277.979,582.279 276.397,581.697 275.233,580.534C274.069,579.37 273.487,577.787 273.487,575.785L273.487,546.248Z" style="fill:rgb(236,236,236);fill-rule:nonzero;"/>
                </g>
            <g id="path1944-3-1-2-9-9-5-0-9-7-3-1-5" transform="matrix(1,0,0,1,6.48308,0)">
                    <path d="M334.04,580.673C333.388,581.232 332.364,581.721 330.967,582.14C329.617,582.558 328.128,582.768 326.498,582.768C324.543,582.768 322.867,582.489 321.471,581.93C320.074,581.325 319.12,580.51 318.608,579.486C318.096,578.415 317.467,577.042 316.723,575.366C315.978,573.644 315.186,571.735 314.348,569.64C313.557,567.546 312.719,565.334 311.835,563.007C310.997,560.633 310.182,558.235 309.391,555.815C308.599,553.394 307.854,551.02 307.156,548.692C306.458,546.365 305.853,544.177 305.341,542.129C305.992,541.477 306.923,540.895 308.134,540.383C309.391,539.824 310.717,539.545 312.114,539.545C313.836,539.545 315.233,539.917 316.304,540.662C317.421,541.361 318.235,542.687 318.747,544.642C320.004,549.204 321.261,553.58 322.518,557.77C323.822,561.913 325.172,566.242 326.568,570.758L326.987,570.758C328.244,566.382 329.524,561.61 330.828,556.443C332.178,551.276 333.458,546.132 334.668,541.011C335.506,540.592 336.39,540.243 337.322,539.964C338.299,539.685 339.393,539.545 340.603,539.545C342.326,539.545 343.792,539.941 345.002,540.732C346.213,541.477 346.818,542.734 346.818,544.503C346.818,545.527 346.562,547.017 346.05,548.972C345.584,550.927 344.956,553.138 344.165,555.605C343.42,558.026 342.559,560.563 341.581,563.216C340.65,565.87 339.696,568.384 338.718,570.758C337.787,573.085 336.903,575.157 336.065,576.972C335.227,578.741 334.552,579.975 334.04,580.673Z" style="fill:rgb(236,236,236);fill-rule:nonzero;"/>
                </g>
            <g id="path1946-80-0-6-4-2-4-3-2-5-7-7-6" transform="matrix(1,0,0,1,6.48308,0)">
                    <path d="M374.131,581.79C373.619,581.93 372.827,582.07 371.757,582.209C370.686,582.349 369.639,582.419 368.615,582.419C366.473,582.419 364.867,582.07 363.796,581.371C362.726,580.627 362.19,579.09 362.19,576.763L362.19,567.336C361.027,565.614 359.77,563.705 358.42,561.61C357.07,559.516 355.743,557.374 354.44,555.186C353.136,552.998 351.926,550.857 350.809,548.762C349.691,546.621 348.784,544.666 348.085,542.897C348.691,542.059 349.505,541.291 350.529,540.592C351.6,539.894 352.904,539.545 354.44,539.545C356.255,539.545 357.722,539.917 358.839,540.662C360.003,541.407 361.097,542.804 362.121,544.852L367.916,556.513L368.335,556.513C368.987,555.07 369.546,553.766 370.011,552.603C370.523,551.392 371.012,550.205 371.478,549.041C371.943,547.831 372.432,546.598 372.944,545.341C373.456,544.037 374.038,542.548 374.69,540.872C375.527,540.453 376.458,540.127 377.483,539.894C378.507,539.661 379.484,539.545 380.415,539.545C382.045,539.545 383.418,539.987 384.535,540.872C385.699,541.71 386.281,542.99 386.281,544.712C386.281,545.271 386.164,545.946 385.932,546.737C385.699,547.529 385.164,548.739 384.326,550.368C383.488,551.951 382.254,554.116 380.625,556.862C379.042,559.609 376.877,563.193 374.131,567.615L374.131,581.79Z" style="fill:rgb(236,236,236);fill-rule:nonzero;"/>
                </g>
            </g>
        </g>
    </g>
</svg>
