<?xml version="1.0" encoding="UTF-8" standalone="no"?>
<!DOCTYPE svg PUBLIC "-//W3C//DTD SVG 1.1//EN" "http://www.w3.org/Graphics/SVG/1.1/DTD/svg11.dtd">
<svg width="100%" height="100%" viewBox="0 0 248 192" version="1.1" xmlns="http://www.w3.org/2000/svg" xmlns:xlink="http://www.w3.org/1999/xlink" xml:space="preserve" xmlns:serif="http://www.serif.com/" style="fill-rule:evenodd;clip-rule:evenodd;stroke-linejoin:round;stroke-miterlimit:2;">
    <rect id="behavior" x="-0" y="-0" width="248" height="192" style="fill:none;"/>
    <clipPath id="_clip1">
        <rect x="-0" y="-0" width="248" height="192"/>
    </clipPath>
    <g clip-path="url(#_clip1)">
        <path d="M176.002,0C184.837,0 192,7.163 192,15.998L192,16.002C192,24.837 184.837,32 176.002,32L127.998,32C119.163,32 112,24.837 112,16.002L112,15.998C112,7.163 119.163,0 127.998,-0L176.002,0ZM176.002,8L127.998,8C123.581,8 120,11.581 120,15.998L120,16.002C120,20.419 123.581,24 127.998,24L176.002,24C180.419,24 184,20.419 184,16.002L184,15.998C184,11.581 180.419,8 176.002,8Z" style="fill:white;"/>
        <path d="M120.002,80C128.837,80 136,87.163 136,95.998L136,96.002C136,104.837 128.837,112 120.002,112L71.998,112C63.163,112 56,104.837 56,96.002L56,95.998C56,87.163 63.163,80 71.998,80L120.002,80ZM120.002,88L71.998,88C67.581,88 64,91.581 64,95.998L64,96.002C64,100.419 67.581,104 71.998,104L120.002,104C124.419,104 128,100.419 128,96.002L128,95.998C128,91.581 124.419,88 120.002,88Z" style="fill:white;"/>
        <path d="M248,112L168,112L168,80L248,80L248,112ZM240,88L176,88L176,104L240,104L240,88Z" style="fill:white;"/>
        <path d="M192,192L112,192L112,160L192,160L192,192ZM184,168L120,168L120,184L184,184L184,168Z" style="fill:white;"/>
        <path d="M80,192L0,192L0,160L80,160L80,192ZM72,168L8,168L8,184L72,184L72,168Z" style="fill:white;"/>
        <path d="M156,40L164,40L164,48C164,49.061 164.421,50.078 165.172,50.828C165.922,51.579 166.939,52 168,52L200,52C203.183,52 206.235,53.264 208.485,55.515C210.736,57.765 212,60.817 212,64L212,72L204,72L204,64C204,62.939 203.579,61.922 202.828,61.172C202.078,60.421 201.061,60 200,60L168,60C164.817,60 161.765,58.736 159.515,56.485C157.264,54.235 156,51.183 156,48L156,40Z" style="fill:white;"/>
        <path d="M140,40L148,40L148,48C148,51.183 146.736,54.235 144.485,56.485C142.235,58.736 139.183,60 136,60L104,60C102.939,60 101.922,60.421 101.172,61.172C100.421,61.922 100,62.939 100,64L100,72L92,72L92,64C92,60.817 93.264,57.765 95.515,55.515C97.765,53.264 100.817,52 104,52L136,52C137.061,52 138.078,51.579 138.828,50.828C139.579,50.078 140,49.061 140,48L140,40Z" style="fill:white;"/>
        <path d="M100,120L108,120L108,128C108,129.061 108.421,130.078 109.172,130.828C109.922,131.579 110.939,132 112,132L144,132C147.183,132 150.235,133.264 152.485,135.515C154.736,137.765 156,140.817 156,144L156,152L148,152L148,144C148,142.939 147.579,141.922 146.828,141.172C146.078,140.421 145.061,140 144,140L112,140C108.817,140 105.765,138.736 103.515,136.485C101.264,134.235 100,131.183 100,128L100,120Z" style="fill:white;"/>
        <path d="M84,120L92,120L92,128C92,131.183 90.736,134.235 88.485,136.485C86.235,138.736 83.183,140 80,140L48,140C46.939,140 45.922,140.421 45.172,141.172C44.421,141.922 44,142.939 44,144L44,152L36,152L36,144C36,140.817 37.264,137.765 39.515,135.515C41.765,133.264 44.817,132 48,132L80,132C81.061,132 82.078,131.579 82.828,130.828C83.579,130.078 84,129.061 84,128L84,120Z" style="fill:white;"/>
    </g>
</svg>
