<?xml version="1.0" encoding="UTF-8" standalone="no"?>
<!DOCTYPE svg PUBLIC "-//W3C//DTD SVG 1.1//EN" "http://www.w3.org/Graphics/SVG/1.1/DTD/svg11.dtd">
<svg width="100%" height="100%" viewBox="0 0 368 120" version="1.1" xmlns="http://www.w3.org/2000/svg" xmlns:xlink="http://www.w3.org/1999/xlink" xml:space="preserve" xmlns:serif="http://www.serif.com/" style="fill-rule:evenodd;clip-rule:evenodd;stroke-linejoin:round;stroke-miterlimit:2;">
    <rect id="blueprint" x="0" y="0" width="368" height="120" style="fill:none;"/>
    <clipPath id="_clip1">
        <rect x="0" y="0" width="368" height="120"/>
    </clipPath>
    <g clip-path="url(#_clip1)">
        <path d="M64.002,40C72.837,40 80,47.163 80,55.998L80,56.002C80,64.837 72.837,72 64.002,72L15.998,72C7.163,72 0,64.837 0,56.002L0,55.998C0,47.163 7.163,40 15.998,40L64.002,40ZM64.002,48L15.998,48C11.581,48 8,51.581 8,55.998L8,56.002C8,60.419 11.581,64 15.998,64L64.002,64C68.419,64 72,60.419 72,56.002L72,55.998C72,51.581 68.419,48 64.002,48Z" style="fill:white;"/>
        <path d="M80,100C80,106.627 74.627,112 68,112L36,112C29.373,112 24,106.627 24,100C24,93.373 29.373,88 36,88L68,88C74.627,88 80,93.373 80,100ZM68,96L36,96C33.791,96 32,97.791 32,100C32,102.209 33.791,104 36,104L68,104C70.209,104 72,102.209 72,100C72,97.791 70.209,96 68,96Z" style="fill:white;"/>
        <path d="M224,12C224,18.627 218.627,24 212,24L180,24C173.373,24 168,18.627 168,12C168,5.373 173.373,0 180,-0L212,0C218.627,0 224,5.373 224,12ZM212,8L180,8C177.791,8 176,9.791 176,12C176,14.209 177.791,16 180,16L212,16C214.209,16 216,14.209 216,12C216,9.791 214.209,8 212,8Z" style="fill:white;"/>
        <path d="M224,72L144,72L144,40L224,40L224,72ZM216,48L152,48L152,64L216,64L216,48Z" style="fill:white;"/>
        <path d="M368,88L288,88L288,40L368,40L368,88ZM360,48L296,48L296,80L360,80L360,48Z" style="fill:white;"/>
        <path d="M224,120L144,120L144,88L224,88L224,120ZM216,96L152,96L152,112L216,112L216,96Z" style="fill:white;"/>
        <rect x="88" y="40" width="48" height="8" style="fill:white;"/>
        <rect x="232" y="40" width="48" height="8" style="fill:white;"/>
        <rect x="88" y="96" width="48" height="8" style="fill:white;"/>
        <path d="M88,104L88,96C101.614,96 104.806,87.073 108.295,78.493C112.939,67.07 117.873,56 136,56L136,64C122.386,64 119.194,72.927 115.705,81.507C111.061,92.93 106.127,104 88,104Z" style="fill:white;"/>
        <path d="M232,104L232,96C238.877,96 243.226,94.833 246.267,92.883C249.272,90.956 250.947,88.326 252.689,85.756C255.013,82.326 257.403,78.956 261.415,76.383C265.391,73.833 271.008,72 280,72L280,80C273.123,80 268.774,81.167 265.733,83.117C262.728,85.044 261.053,87.674 259.311,90.244C256.987,93.674 254.597,97.044 250.585,99.617C246.609,102.167 240.992,104 232,104Z" style="fill:white;"/>
        <path d="M232,16L232,8C250.022,8 255.171,21.088 259.788,34.716C263.304,45.094 266.277,56 280,56L280,64C261.978,64 256.829,50.912 252.212,37.284C248.696,26.906 245.723,16 232,16Z" style="fill:white;"/>
    </g>
</svg>
