<?xml version="1.0" encoding="UTF-8" standalone="no"?>
<!DOCTYPE svg PUBLIC "-//W3C//DTD SVG 1.1//EN" "http://www.w3.org/Graphics/SVG/1.1/DTD/svg11.dtd">
<svg width="100%" height="100%" viewBox="0 0 192 256" version="1.1" xmlns="http://www.w3.org/2000/svg" xmlns:xlink="http://www.w3.org/1999/xlink" xml:space="preserve" xmlns:serif="http://www.serif.com/" style="fill-rule:evenodd;clip-rule:evenodd;stroke-linejoin:round;stroke-miterlimit:2;">
    <rect id="gdscript" x="0" y="0" width="192" height="256" style="fill:none;"/>
    <clipPath id="_clip1">
        <rect x="0" y="0" width="192" height="256"/>
    </clipPath>
    <g clip-path="url(#_clip1)">
        <rect x="0" y="-0" width="64" height="8" style="fill:white;"/>
        <rect x="0" y="-0" width="64" height="8" style="fill:white;"/>
        <rect x="0" y="200" width="64" height="8" style="fill:white;"/>
        <rect x="0" y="200" width="64" height="8" style="fill:white;"/>
        <rect x="32" y="16" width="24" height="8" style="fill:white;"/>
        <rect x="32" y="16" width="24" height="8" style="fill:white;"/>
        <rect x="32" y="232" width="24" height="8" style="fill:white;"/>
        <rect x="32" y="232" width="24" height="8" style="fill:white;"/>
        <rect x="32" y="176" width="24" height="8" style="fill:white;"/>
        <rect x="32" y="176" width="24" height="8" style="fill:white;"/>
        <rect x="64" y="16" width="64" height="8" style="fill:white;"/>
        <rect x="64" y="16" width="64" height="8" style="fill:white;"/>
        <rect x="64" y="232" width="64" height="8" style="fill:white;"/>
        <rect x="64" y="232" width="64" height="8" style="fill:white;"/>
        <rect x="56" y="64" width="96" height="8" style="fill:white;"/>
        <rect x="56" y="64" width="96" height="8" style="fill:white;"/>
        <rect x="32" y="32" width="80" height="8" style="fill:white;"/>
        <rect x="32" y="32" width="80" height="8" style="fill:white;"/>
        <rect x="32" y="216" width="80" height="8" style="fill:white;"/>
        <rect x="32" y="216" width="80" height="8" style="fill:white;"/>
        <rect x="32" y="160" width="112" height="8" style="fill:white;"/>
        <rect x="32" y="160" width="112" height="8" style="fill:white;"/>
        <rect x="64" y="144" width="64" height="8" style="fill:white;"/>
        <rect x="64" y="144" width="64" height="8" style="fill:white;"/>
        <rect x="32" y="248" width="64" height="8" style="fill:white;"/>
        <rect x="32" y="248" width="64" height="8" style="fill:white;"/>
        <rect x="64" y="80" width="104" height="8" style="fill:white;"/>
        <rect x="64" y="80" width="104" height="8" style="fill:white;"/>
        <rect x="64" y="96" width="80" height="8" style="fill:white;"/>
        <rect x="64" y="96" width="80" height="8" style="fill:white;"/>
        <rect x="64" y="128" width="112" height="8" style="fill:white;"/>
        <rect x="64" y="128" width="112" height="8" style="fill:white;"/>
        <rect x="32" y="48" width="160" height="8" style="fill:white;"/>
        <rect x="32" y="48" width="160" height="8" style="fill:white;"/>
        <rect x="32" y="64" width="16" height="8" style="fill:white;"/>
        <rect x="32" y="64" width="16" height="8" style="fill:white;"/>
        <rect x="32" y="112" width="16" height="8" style="fill:white;"/>
        <rect x="32" y="112" width="16" height="8" style="fill:white;"/>
        <rect x="56" y="112" width="48" height="8" style="fill:white;"/>
        <rect x="56" y="112" width="48" height="8" style="fill:white;"/>
    </g>
</svg>
