<?xml version="1.0" encoding="UTF-8" standalone="no"?>
<!DOCTYPE svg PUBLIC "-//W3C//DTD SVG 1.1//EN" "http://www.w3.org/Graphics/SVG/1.1/DTD/svg11.dtd">
<svg width="100%" height="100%" viewBox="0 0 192 184" version="1.1" xmlns="http://www.w3.org/2000/svg" xmlns:xlink="http://www.w3.org/1999/xlink" xml:space="preserve" xmlns:serif="http://www.serif.com/" style="fill-rule:evenodd;clip-rule:evenodd;stroke-linejoin:round;stroke-miterlimit:2;">
    <rect id="yarn" x="0" y="0" width="192" height="184" style="fill:none;"/>
    <clipPath id="_clip1">
        <rect x="0" y="0" width="192" height="184"/>
    </clipPath>
    <g clip-path="url(#_clip1)">
        <rect x="-0" y="0" width="32" height="8" style="fill:white;"/>
        <rect x="-0" y="0" width="32" height="8" style="fill:white;"/>
        <rect x="-0" y="56" width="32" height="8" style="fill:white;"/>
        <rect x="-0" y="56" width="32" height="8" style="fill:white;"/>
        <rect x="-0" y="144" width="32" height="8" style="fill:white;"/>
        <rect x="-0" y="144" width="32" height="8" style="fill:white;"/>
        <rect x="40" y="96" width="32" height="8" style="fill:white;"/>
        <rect x="40" y="96" width="32" height="8" style="fill:white;"/>
        <rect x="40" y="120" width="32" height="8" style="fill:white;"/>
        <rect x="40" y="120" width="32" height="8" style="fill:white;"/>
        <rect x="40" y="0" width="152" height="8" style="fill:white;"/>
        <rect x="40" y="0" width="152" height="8" style="fill:white;"/>
        <rect x="40" y="56" width="152" height="8" style="fill:white;"/>
        <rect x="40" y="56" width="152" height="8" style="fill:white;"/>
        <rect x="40" y="144" width="152" height="8" style="fill:white;"/>
        <rect x="40" y="144" width="152" height="8" style="fill:white;"/>
        <rect x="40" y="16" width="152" height="8" style="fill:white;"/>
        <rect x="40" y="16" width="152" height="8" style="fill:white;"/>
        <rect x="40" y="72" width="88" height="8" style="fill:white;"/>
        <rect x="40" y="72" width="88" height="8" style="fill:white;"/>
        <rect x="40" y="160" width="152" height="8" style="fill:white;"/>
        <rect x="40" y="160" width="152" height="8" style="fill:white;"/>
        <rect x="40" y="176" width="69" height="8" style="fill:white;"/>
        <rect x="40" y="176" width="69" height="8" style="fill:white;"/>
        <rect x="80" y="96" width="112" height="8" style="fill:white;"/>
        <rect x="80" y="96" width="112" height="8" style="fill:white;"/>
        <rect x="80" y="120" width="88" height="8" style="fill:white;"/>
        <rect x="80" y="120" width="88" height="8" style="fill:white;"/>
        <rect x="40" y="32" width="120" height="8" style="fill:white;"/>
        <rect x="40" y="32" width="120" height="8" style="fill:white;"/>
    </g>
</svg>
