<?xml version="1.0" encoding="UTF-8" standalone="no"?><!DOCTYPE svg PUBLIC "-//W3C//DTD SVG 1.1//EN" "http://www.w3.org/Graphics/SVG/1.1/DTD/svg11.dtd"><svg width="100%" height="100%" viewBox="0 0 256 256" version="1.1" xmlns="http://www.w3.org/2000/svg" xmlns:xlink="http://www.w3.org/1999/xlink" xml:space="preserve" xmlns:serif="http://www.serif.com/" style="fill-rule:evenodd;clip-rule:evenodd;stroke-linecap:round;stroke-linejoin:round;stroke-miterlimit:1.5;"><rect id="Artboard1" x="0" y="0" width="256" height="256" style="fill:none;"/><g><rect x="32" y="50.378" width="192" height="192" style="fill:none;"/><path d="M156,147.965c-4.42,-0 -8,-3.58 -8,-8l0,-24c0,-4.42 3.58,-8 8,-8c4.42,-0 8,3.58 8,8l0,24c0,4.42 -3.58,8 -8,8" style="fill:#68abdf;fill-rule:nonzero;"/><path d="M156,95.965c-4.42,-0 -8,-3.58 -8,-8c0,-4.42 3.58,-8 8,-8c4.42,-0 8,3.58 8,8c0,4.42 -3.58,8 -8,8" style="fill:#99c47a;fill-rule:nonzero;"/><path d="M128,115.965c-4.42,-0 -8,-3.58 -8,-8l0,-36c0,-4.42 3.58,-8 8,-8c4.42,-0 8,3.58 8,8l0,36c0,4.42 -3.58,8 -8,8" style="fill:#ffc66d;fill-rule:nonzero;"/><path d="M100,147.965c-4.42,-0 -8,-3.58 -8,-8l0,-48c0,-4.42 3.58,-8 8,-8c4.42,-0 8,3.58 8,8l0,48c0,4.42 -3.58,8 -8,8" style="fill:#ff6470;fill-rule:nonzero;"/><path d="M128,178.017c3.576,2.596 4.368,7.6 1.768,11.176l-18.808,25.888c-2.596,3.572 -7.6,4.364 -11.172,1.768c-3.576,-2.596 -4.368,-7.6 -1.772,-11.172l18.808,-25.892c2.6,-3.572 7.6,-4.364 11.176,-1.768" style="fill:#f2f2f2;fill-rule:nonzero;"/><path d="M128,178.017c3.576,-2.596 8.576,-1.804 11.176,1.768l18.808,25.892c2.596,3.572 1.804,8.576 -1.772,11.172c-3.572,2.596 -8.576,1.804 -11.172,-1.768l-18.808,-25.888c-2.6,-3.576 -1.808,-8.58 1.768,-11.176" style="fill:#f2f2f2;fill-rule:nonzero;"/><path d="M166.201,165.505l-37.808,12.512l-38.432,-12.383" style="fill:none;stroke:#f2f2f2;stroke-width:16px;"/><path d="M128,178.017c-1.364,4.204 -5.88,6.5 -10.08,5.136l-30.436,-9.888c-4.2,-1.364 -6.5,-5.88 -5.136,-10.08c1.368,-4.204 5.88,-6.504 10.08,-5.136l30.436,9.888c4.2,1.364 6.5,5.876 5.136,10.08" style="fill:#f2f2f2;fill-rule:nonzero;"/><path d="M128,178.017c-1.364,-4.204 0.936,-8.716 5.136,-10.08l30.436,-9.888c4.2,-1.368 8.712,0.932 10.08,5.136c1.364,4.2 -0.936,8.716 -5.136,10.08l-30.436,9.888c-4.2,1.364 -8.716,-0.932 -10.08,-5.136" style="fill:#f2f2f2;fill-rule:nonzero;"/><path d="M128,178.017c-4.42,-0 -8,-3.58 -8,-8l0,-32c0,-4.42 3.58,-8 8,-8c4.42,-0 8,3.58 8,8l0,32c0,4.42 -3.58,8 -8,8" style="fill:#f2f2f2;fill-rule:nonzero;"/><path d="M128,110.022l0,-66l-38,22" style="fill:none;stroke:#ffc66d;stroke-width:16px;"/></g></svg>